<?xml version="1.0" encoding="UTF-8"?>
<svg version="1.1" xmlns="http://www.w3.org/2000/svg" width="512" height="512">
<path d="M0 0 C1.90331691 -0.00706784 3.80662821 -0.01581648 5.70993042 -0.02610779 C10.8525757 -0.04851414 15.99491195 -0.0456826 21.13758731 -0.03678632 C25.4416177 -0.03165818 29.74559094 -0.03898376 34.04961544 -0.04625839 C44.20809572 -0.06322954 54.36642568 -0.05971954 64.52490234 -0.04296875 C74.98204485 -0.02604775 85.43876989 -0.04188816 95.89586681 -0.07419163 C104.89665757 -0.10093626 113.89731877 -0.10815044 122.89814526 -0.09967655 C128.26402847 -0.09476187 133.6296606 -0.0968839 138.99551201 -0.11746407 C144.04285558 -0.13589795 149.08960132 -0.12976856 154.1369133 -0.10526466 C155.98148238 -0.10028129 157.82609763 -0.10368172 159.6706295 -0.11641312 C172.94074913 -0.2007107 184.22011778 0.9906012 194.29516602 10.64672852 C199.40348415 16.16645482 205.04125977 22.64697437 205.04125977 30.53344727 C206.17563477 30.73969727 207.31000977 30.94594727 208.47875977 31.15844727 C217.40792851 33.41440333 225.80802988 40.18940408 230.54907227 48.02563477 C232.70674026 52.18068684 234.26563417 55.89619635 235.04125977 60.53344727 C236.24782227 60.62625977 236.24782227 60.62625977 237.47875977 60.72094727 C245.92882029 62.64815405 252.75349616 67.74914679 258.04125977 74.53344727 C264.04125977 84.61447072 264.04125977 84.61447072 264.04125977 89.53344727 C264.82500977 89.57469727 265.60875977 89.61594727 266.41625977 89.65844727 C275.92122434 91.95274906 284.37219344 98.75443441 289.57641602 106.95141602 C294.6019333 116.40173278 295.33730896 125.45988664 295.3086853 136.03131104 C295.31321642 137.26714487 295.31774753 138.5029787 295.32241595 139.77626204 C295.33284507 143.18557712 295.33439288 146.59468031 295.3320272 150.00399613 C295.33161745 153.68920779 295.34267313 157.3743885 295.35214233 161.05958557 C295.36871914 168.27173339 295.37425037 175.4838485 295.37536709 182.69601378 C295.37631912 188.56144381 295.38043714 194.4268631 295.38676834 200.29228973 C295.40437152 216.94053934 295.41360863 233.58876321 295.41210739 250.23702219 C295.41202748 251.13357782 295.41194757 252.03013344 295.41186523 252.95385742 C295.41178347 253.85151415 295.41170171 254.74917087 295.41161747 255.67402932 C295.41080479 270.21763711 295.42994048 284.76114129 295.45814197 299.30471912 C295.48690462 314.25626827 295.50068041 329.20776693 295.49895442 344.15934443 C295.49829169 352.54616726 295.5037323 360.93288144 295.52531052 369.31967926 C295.54356686 376.46083267 295.54783323 383.60182818 295.53429167 390.74299487 C295.52778443 394.38215734 295.52756277 398.02101728 295.54499817 401.66015053 C295.56375561 405.61612145 295.55111586 409.57165619 295.53573608 413.52764893 C295.54602321 414.66260024 295.55631034 415.79755156 295.56690919 416.96689534 C295.45985758 429.48825583 292.08822085 440.96705416 283.45141602 450.24047852 C269.11094212 463.56868367 250.11675136 461.82615568 231.90429688 461.79223633 C229.45735063 461.79494937 227.0104052 461.79851206 224.5634613 461.80285645 C218.62975406 461.81100315 212.69609335 461.80984717 206.76238745 461.80403116 C201.93677238 461.79949865 197.11117148 461.79890861 192.28555489 461.8010788 C191.25199717 461.8015385 191.25199717 461.8015385 190.19755949 461.80200748 C188.79743094 461.80264699 187.3973024 461.80329541 185.99717385 461.80395266 C172.89557203 461.80964367 159.79399828 461.8031172 146.69240106 461.79235193 C135.46939916 461.78341554 124.24643865 461.78497157 113.0234375 461.79418945 C99.96442741 461.80491042 86.90544186 461.80909655 73.84642798 461.80296493 C72.45200162 461.80232788 71.05757525 461.80169914 69.66314888 461.8010788 C68.63423906 461.80061597 68.63423906 461.80061597 67.58454318 461.80014379 C62.76851874 461.79842248 57.95250997 461.80131972 53.13648796 461.8060379 C46.64639801 461.81225691 40.15636762 461.80778235 33.66628456 461.79624939 C31.28914901 461.79361229 28.91200686 461.7943516 26.53487396 461.79877472 C23.281254 461.80426908 20.02788111 461.79734897 16.77427673 461.78741455 C15.84176635 461.79187599 14.90925597 461.79633744 13.9484877 461.80093408 C0.82166179 461.72360546 -11.39071418 458.99921394 -21.33374023 449.90844727 C-25.98585472 444.87676696 -30.95874023 437.55041236 -30.95874023 430.53344727 C-31.92811523 430.31430664 -32.89749023 430.09516602 -33.89624023 429.86938477 C-49.19394323 426.29837901 -63.07677348 420.86486096 -76.95874023 413.53344727 C-84.04526133 418.9480821 -84.04526133 418.9480821 -87.51733398 426.77563477 C-87.43634305 428.99635384 -87.3123091 431.2159033 -87.14624023 433.43188477 C-86.70120546 440.79350162 -89.52435247 445.35729105 -94.27124023 450.78344727 C-95.81524475 452.38482191 -97.3762851 453.97005786 -98.95874023 455.53344727 C-99.51174805 456.10836914 -100.06475586 456.68329102 -100.63452148 457.27563477 C-103.35598027 459.87239059 -104.85546441 460.52469508 -108.64624023 460.84594727 C-109.73936523 460.74282227 -110.83249023 460.63969727 -111.95874023 460.53344727 C-115.57579666 460.53344727 -116.14128667 461.18232873 -118.70874023 463.59594727 C-120.60754775 465.45144875 -120.60754775 465.45144875 -121.95874023 467.53344727 C-121.88295068 471.14807512 -121.88295068 471.14807512 -120.95874023 474.53344727 C-122.19380839 479.60716776 -125.63262713 482.6584947 -129.21655273 486.22485352 C-129.83843475 486.85197739 -130.46031677 487.47910126 -131.1010437 488.12522888 C-132.41701544 489.44761121 -133.73686421 490.76614513 -135.06030273 492.08105469 C-137.06826491 494.08053729 -139.05691744 496.09788886 -141.04467773 498.11743164 C-142.33000379 499.40437079 -143.61642798 500.6902143 -144.90405273 501.97485352 C-145.49082794 502.5728627 -146.07760315 503.17087189 -146.68215942 503.78700256 C-151.67807113 508.70120031 -156.71297731 512.07743099 -163.73999023 513.06469727 C-164.96717773 513.05438477 -166.19436523 513.04407227 -167.45874023 513.03344727 C-168.68592773 513.04375977 -169.91311523 513.05407227 -171.17749023 513.06469727 C-179.0373418 511.9604206 -184.33074645 507.76609765 -189.75952148 502.22875977 C-190.36257614 501.62716034 -190.9656308 501.02556091 -191.58695984 500.4057312 C-192.84960366 499.1414388 -194.10735573 497.87224351 -195.36035156 496.59838867 C-197.2713758 494.65830964 -199.20048662 492.73768864 -201.13256836 490.81860352 C-202.36350326 489.58143282 -203.59335905 488.34318733 -204.82202148 487.10375977 C-205.67984978 486.25033493 -205.67984978 486.25033493 -206.55500793 485.37966919 C-212.11765329 479.6850253 -214.59807 474.22216026 -215.20874023 466.28344727 C-214.23017156 451.60491711 -203.05473598 442.30673434 -193.25170898 432.49047852 C-192.11967703 431.35200185 -190.98778788 430.21338317 -189.85603333 429.07463074 C-187.49527412 426.70197193 -185.13049567 424.33340496 -182.76318359 421.96728516 C-179.75074738 418.95505239 -176.75232961 415.92927142 -173.75724316 412.8998003 C-171.42793482 410.54811817 -169.08945352 408.20572065 -166.74840736 405.86572838 C-165.63974541 404.75472858 -164.53427215 403.64053615 -163.43227196 402.52292824 C-148.30050807 387.19691611 -148.30050807 387.19691611 -138.95874023 385.53344727 C-136.91638828 385.71332921 -134.87477412 385.90168018 -132.83374023 386.09594727 C-128.41052435 386.18091299 -126.50958951 385.93171059 -122.88452148 383.31079102 C-120.42156283 380.81269743 -118.13448135 378.28381979 -115.95874023 375.53344727 C-117.22023949 371.46197338 -118.75520392 367.84609397 -120.77124023 364.09594727 C-129.09749904 347.64650913 -132.53282871 330.4143756 -132.33374023 312.09594727 C-132.32908752 311.41957214 -132.32443481 310.74319702 -132.31964111 310.04632568 C-132.18378244 293.16849832 -129.59119807 276.79836294 -121.95874023 261.53344727 C-121.85923856 259.55048461 -121.82528853 257.56412654 -121.82070923 255.57867432 C-121.81525589 254.30879166 -121.80980255 253.038909 -121.80418396 251.73054504 C-121.80306406 250.31491094 -121.80201355 248.89927678 -121.80102539 247.48364258 C-121.79635791 245.9986913 -121.79121446 244.51374145 -121.78562927 243.02879333 C-121.77433468 239.82417179 -121.76590664 236.61955962 -121.75951004 233.41492462 C-121.74882617 228.33653815 -121.7285759 223.25821824 -121.70639038 218.17987061 C-121.64449336 203.73607466 -121.59059587 189.29228107 -121.55737305 174.84838867 C-121.53895489 166.87599127 -121.50992161 158.90370399 -121.46936834 150.93138766 C-121.44840285 146.71673523 -121.43285618 142.50222103 -121.43056107 138.28751373 C-121.4283937 134.31148063 -121.41231481 130.33573433 -121.38617134 126.35978889 C-121.37905313 124.91115723 -121.37684039 123.46249053 -121.38027382 122.01384544 C-121.43992424 92.02424238 -106.99466003 77.44007757 -87.14624023 57.48266602 C-86.1890358 56.51934829 -86.1890358 56.51934829 -85.2124939 55.5365696 C-81.8440273 52.14745625 -78.47244731 48.76147542 -75.09838867 45.37792969 C-71.64399581 41.91242125 -68.20146425 38.43536842 -64.76133728 34.9557066 C-62.08266728 32.25076726 -59.39502982 29.55487063 -56.70498657 26.86124611 C-55.43232304 25.58375598 -54.16299715 24.30293066 -52.89730835 23.01852989 C-38.97411937 8.90209738 -38.97411937 8.90209738 -29.95874023 4.53344727 C-29.26109023 4.18715491 -28.56344023 3.84086256 -27.84464931 3.4840765 C-18.77292342 -0.45206352 -9.69693642 -0.03801363 0 0 Z " fill="#020202" transform="translate(215.958740234375,-0.533447265625)"/>
<path d="M0 0 C0.72560906 -0.00438225 1.45121813 -0.00876451 2.19881535 -0.01327956 C4.6429628 -0.02668958 7.08707418 -0.03285146 9.53125 -0.03897095 C11.27884586 -0.04687047 13.02644009 -0.05513933 14.77403259 -0.06375122 C20.52642249 -0.08999876 26.27881975 -0.10528618 32.03125 -0.11953735 C34.01156621 -0.12489678 35.99188237 -0.13027429 37.97219849 -0.13566971 C46.21262481 -0.15730654 54.45304915 -0.1760413 62.6934967 -0.1872921 C74.49913737 -0.20351619 86.30444809 -0.23664738 98.10996437 -0.29369295 C106.41157851 -0.33243655 114.71310459 -0.3519303 123.01480675 -0.35721266 C127.97169099 -0.36086138 132.92822354 -0.37283079 137.88500977 -0.4053154 C142.55380248 -0.43547208 147.22203214 -0.44168083 151.89090157 -0.42993164 C153.5992601 -0.42971151 155.30764532 -0.43796633 157.01591301 -0.45558548 C167.35707728 -0.55638744 176.18828265 -0.23378023 184.1893158 7.14380836 C191.46935193 14.59441993 191.3262134 22.50781862 191.30540466 32.43144226 C191.31064134 33.66768394 191.31587802 34.90392562 191.32127339 36.17762917 C191.33365758 39.59725033 191.33711754 43.01666559 191.33667648 46.43629491 C191.33832863 50.12898651 191.35140242 53.82164101 191.36286926 57.51431274 C191.38568598 65.58249367 191.39363602 73.65064823 191.39869571 81.71885705 C191.40195605 86.75917657 191.4084805 91.79948848 191.4156971 96.8398037 C191.43525728 110.80306025 191.45166536 124.76630974 191.45457363 138.72958088 C191.4547612 139.62250562 191.45494877 140.51543036 191.45514202 141.43541343 C191.45550827 143.24546762 191.45587197 145.05552181 191.45623314 146.86557601 C191.45641595 147.76405061 191.45659876 148.66252521 191.45678711 149.58822632 C191.45705793 150.93758831 191.45705793 150.93758831 191.45733423 152.31421014 C191.46087632 166.89232618 191.48790346 181.47029455 191.525285 196.04835937 C191.56338256 211.02582154 191.58273121 226.00321044 191.58303314 240.98072213 C191.58361732 249.38595258 191.59208406 257.79100677 191.62103081 266.19619179 C191.6455639 273.35250632 191.65281452 280.50858026 191.63778328 287.66492549 C191.63062263 291.31389423 191.63143462 294.96238808 191.65419388 298.61130333 C191.67866596 302.57288077 191.66412454 306.53378386 191.64598083 310.4954071 C191.6591808 311.64046119 191.67238077 312.78551527 191.68598074 313.96526796 C191.60062991 322.13570386 189.84642656 328.81026366 184.35526174 335.06203824 C175.70070102 343.47109588 164.18552563 342.55962525 152.96484375 342.4468689 C151.31861256 342.44126461 149.67237632 342.43699845 148.02613831 342.43400574 C143.72050853 342.42262244 139.41518862 342.39321244 135.10968018 342.3598938 C130.7053242 342.3290514 126.30091752 342.31547029 121.89648438 342.30038452 C113.27459834 342.26833557 104.65296286 342.21721943 96.03125 342.15390015 C96.51293274 340.54818524 96.99462378 338.94247283 97.47631836 337.33676147 C97.74455917 336.44258011 98.01279999 335.54839874 98.28916931 334.62712097 C98.82918134 332.82735848 99.36955938 331.0277058 99.91015625 329.2281189 C108.68954975 298.57549357 104.72808608 265.89977186 89.51171875 237.99227905 C85.88164536 231.61972201 81.70215581 225.81433358 77.03125 220.15390015 C76.38542969 219.35597046 75.73960937 218.55804077 75.07421875 217.7359314 C61.09356597 201.19263351 41.00187611 189.54644777 20.40625 183.34140015 C19.76260498 183.14642944 19.11895996 182.95145874 18.45581055 182.75057983 C7.51576826 179.66565929 -3.51859903 178.78747458 -14.84375 178.84140015 C-16.07246826 178.8463147 -17.30118652 178.85122925 -18.56713867 178.85629272 C-27.41369394 178.97052875 -35.44274354 179.65402221 -43.96875 182.15390015 C-45.14308594 182.47100952 -46.31742188 182.7881189 -47.52734375 183.11483765 C-68.97673253 189.51560763 -86.12750105 201.72673707 -101.484375 217.66171265 C-102.30421875 218.48413452 -103.1240625 219.3065564 -103.96875 220.15390015 C-104.29875 220.15390015 -104.62875 220.15390015 -104.96875 220.15390015 C-105.06224592 204.35074414 -105.13275484 188.54766297 -105.17599869 172.74429893 C-105.19661245 165.40629193 -105.22471012 158.06845691 -105.27050781 150.7305603 C-105.31041221 144.33385623 -105.33619144 137.93727673 -105.34510398 131.54045165 C-105.35031273 128.15420522 -105.3625297 124.76831514 -105.39167023 121.38218307 C-105.4206724 117.59933013 -105.42470714 113.81721733 -105.42285156 110.03427124 C-105.43723267 108.9150528 -105.45161377 107.79583435 -105.46643066 106.6427002 C-105.43454969 100.64312107 -105.17007473 96.80970127 -100.96875 92.15390015 C-95.49260969 87.04933832 -89.9826138 86.46627216 -82.765625 86.62265015 C-81.80658264 86.61938721 -80.84754028 86.61612427 -79.85943604 86.61276245 C-75.79272179 86.59970719 -71.72713139 86.64407877 -67.66064453 86.6836853 C-51.87449034 86.79301122 -40.14244214 86.25568439 -28.16796875 74.76327515 C-22.70729076 68.28417586 -18.86646651 60.31834588 -18.8269043 51.77182007 C-18.81635262 50.48479439 -18.81635262 50.48479439 -18.80558777 49.17176819 C-18.79934135 47.79200554 -18.79934135 47.79200554 -18.79296875 46.3843689 C-18.76976966 44.42407171 -18.74565229 42.46378522 -18.72070312 40.50350952 C-18.68561781 37.42262616 -18.65625321 34.3421366 -18.64282227 31.26107788 C-18.62729906 28.28086038 -18.58706372 25.30178309 -18.54296875 22.3218689 C-18.54487717 21.40809982 -18.54678558 20.49433075 -18.54875183 19.5528717 C-18.43520572 13.5799993 -17.43224485 10.05730613 -13.96875 5.15390015 C-9.09159177 0.74123317 -6.5287929 0.02787394 0 0 Z " fill="#F2F9FD" transform="translate(215.96875,14.846099853515625)"/>
<path d="M0 0 C2.49823192 2.20677153 4.9207573 4.47215634 7.328125 6.77734375 C8.01519531 7.40125 8.70226562 8.02515625 9.41015625 8.66796875 C27.45971458 25.61390517 37.72966559 51.02961541 38.53125 75.5546875 C38.95118804 102.72730323 31.94177219 126.60465032 14.328125 147.77734375 C13.67199219 148.58042969 13.01585937 149.38351562 12.33984375 150.2109375 C-4.20427204 169.59810061 -29.27538307 182.41909807 -54.671875 184.77734375 C-83.09754731 186.63283835 -109.53913542 178.86295381 -131.671875 160.77734375 C-132.83976562 159.85695313 -132.83976562 159.85695313 -134.03125 158.91796875 C-154.9198723 141.58485663 -166.11240054 115.34884895 -168.671875 88.77734375 C-170.59652764 61.26281809 -162.62814585 34.93896922 -144.671875 13.77734375 C-108.25668922 -27.73336103 -43.41192957 -36.11314024 0 0 Z " fill="#D0ECF8" transform="translate(267.671875,230.22265625)"/>
<path d="M0 0 C3.77067733 1.415841 5.98038876 2.61419607 8.625 5.6875 C9.19476563 6.33074219 9.76453125 6.97398438 10.3515625 7.63671875 C15.35480082 14.80960782 15.42855004 21.06563677 15.40625 29.609375 C15.41708618 30.81313782 15.42792236 32.01690063 15.43908691 33.25714111 C15.48489545 38.39127803 15.49648225 43.52536305 15.51123047 48.65966797 C15.52687122 52.41392256 15.55984786 56.16774827 15.59375 59.921875 C15.59072876 61.08748962 15.58770752 62.25310425 15.58459473 63.45404053 C15.59470581 64.53236145 15.60481689 65.61068237 15.61523438 66.72167969 C15.61728882 67.67097351 15.61934326 68.62026733 15.62145996 69.59832764 C15.82008414 72.03819409 15.82008414 72.03819409 17.30529785 73.80255127 C20.17370738 75.82932237 22.62461984 75.42192252 26 75 C28.07044415 73.22952902 28.88700445 71.75023123 29.29330444 69.0526123 C29.44486185 66.57833865 29.49364063 64.11947856 29.51171875 61.640625 C29.52966995 60.73624695 29.54762115 59.8318689 29.56611633 58.90008545 C29.62021857 56.0167708 29.65411474 53.13362168 29.6875 50.25 C29.72067315 48.29294572 29.75516281 46.33591328 29.79101562 44.37890625 C29.87594504 39.58605693 29.9427567 34.79325671 30 30 C33.83614585 31.43466578 36.0159492 32.67267737 38.6875 35.8125 C39.55955078 36.81216797 39.55955078 36.81216797 40.44921875 37.83203125 C43.33120037 41.860998 44.24984634 45.44117694 44.25447559 50.35619068 C44.26030779 51.42364798 44.26613998 52.49110529 44.27214891 53.59090978 C44.26836958 54.75762784 44.26459026 55.92434591 44.26069641 57.12641907 C44.26452196 58.37053014 44.26834751 59.6146412 44.27228898 60.89645261 C44.28082556 64.34726393 44.28038406 67.79786232 44.27610838 71.2486676 C44.27364335 74.971342 44.28265262 78.69399127 44.29014587 82.41665649 C44.30290168 89.70922725 44.30468542 97.00176121 44.30234561 104.29434124 C44.30056307 110.22236171 44.30231073 116.15037099 44.30657005 122.07839012 C44.30716524 122.92188807 44.30776043 123.76538601 44.30837366 124.6344445 C44.3095854 126.34799598 44.31079954 128.06154746 44.31201603 129.77509894 C44.32289523 145.84904874 44.32072744 161.92297756 44.31463119 177.99692854 C44.30946322 192.69934703 44.32071362 207.40169924 44.33972941 222.10410462 C44.359106 237.20127349 44.36736402 252.298411 44.36360615 267.39559239 C44.36169364 275.87116024 44.36418642 284.34667168 44.37832069 292.82222939 C44.39023328 300.03862997 44.39164086 307.25493946 44.37953053 314.47134129 C44.37364061 318.1523357 44.37254538 321.83316348 44.38453293 325.5141468 C44.39738515 329.50710667 44.38692981 333.49966975 44.3742218 337.49263 C44.38159609 338.6526559 44.38897037 339.8126818 44.39656812 341.00786 C44.3433907 348.94240554 43.32307677 354.54857165 38.8125 361.25 C33.83770188 366.11424705 27.62834179 369.11815074 20.60830402 369.13422108 C19.70506501 369.13867892 18.80182601 369.14313676 17.87121612 369.14772969 C16.38087593 369.14745315 16.38087593 369.14745315 14.86042786 369.14717102 C13.80586905 369.15084771 12.75131024 369.1545244 11.6647951 369.1583125 C8.11352065 369.16936938 4.56227544 369.17319658 1.01098633 369.17700195 C-1.52816868 369.18326507 -4.06732276 369.18991174 -6.60647583 369.19691467 C-14.23899497 369.2161563 -21.87150897 369.22674502 -29.50404617 369.23564246 C-33.0987861 369.24002605 -36.69352456 369.24539269 -40.28826332 369.25063133 C-52.238878 369.26764354 -64.18949176 369.28213745 -76.14011669 369.28938007 C-79.24127898 369.29128995 -82.34244126 369.29321029 -85.44360352 369.29516602 C-86.21437775 369.29564976 -86.98515199 369.2961335 -87.77928302 369.2966319 C-100.26382952 369.30493125 -112.74828018 369.33026657 -125.23278483 369.36274669 C-138.05178104 369.39582499 -150.87072855 369.41382954 -163.68976766 369.41702431 C-170.88660933 369.41918874 -178.08331125 369.42792736 -185.28011131 369.45348549 C-192.05083785 369.477475 -198.82126949 369.48101335 -205.59204483 369.47072411 C-208.07687147 369.47022779 -210.56171035 369.47657618 -213.04649925 369.49028015 C-216.43980524 369.50794728 -219.8322033 369.50091742 -223.22550964 369.48774719 C-224.69911942 369.50420106 -224.69911942 369.50420106 -226.20249909 369.52098733 C-233.48304126 369.45280544 -238.83653311 367.83215785 -244.3125 362.9296875 C-245.1478125 361.91261719 -245.1478125 361.91261719 -246 360.875 C-246.5775 360.19179688 -247.155 359.50859375 -247.75 358.8046875 C-249 357 -249 357 -249 355 C-247.75447263 354.99853344 -246.50894526 354.99706688 -245.22567463 354.99555588 C-215.62083935 354.95980917 -186.01611656 354.90350361 -156.41137533 354.82207905 C-152.76293877 354.81206229 -149.11450177 354.80221804 -145.46606445 354.79248047 C-144.73976448 354.7905391 -144.01346452 354.78859772 -143.26515546 354.78659752 C-131.52426377 354.75562539 -119.78339161 354.73861027 -108.0424668 354.72680578 C-95.98398622 354.71436935 -83.92560764 354.68681194 -71.86719149 354.64538693 C-65.0988632 354.62256459 -58.33066641 354.60659393 -51.56229591 354.60811615 C-45.18551318 354.60886349 -38.80905167 354.5908822 -32.43235207 354.55883217 C-30.09800685 354.55034676 -27.76362556 354.54857394 -25.4292717 354.55419731 C-8.85587988 354.58878938 5.79530065 354.20473762 18.70703125 342.4453125 C27.16521524 333.49462666 29.15798972 322.63786887 29.12698364 310.79475403 C29.12932363 309.41816566 29.12932363 309.41816566 29.13171089 308.01376742 C29.1356942 304.94381356 29.13254159 301.87390929 29.12939453 298.80395508 C29.13074972 296.60106884 29.13253032 294.39818282 29.13470459 292.19529724 C29.13926404 286.2162973 29.13749567 280.23731461 29.1343255 274.25831437 C29.1317952 268.00567977 29.13414123 261.75304665 29.13571167 255.50041199 C29.13764754 244.33084092 29.13453934 233.16127619 29.12945233 221.99170663 C29.12498143 211.86108504 29.12576355 201.7304749 29.13037109 191.59985352 C29.13571996 179.83377604 29.13771628 168.06770415 29.13475883 156.30162543 C29.13319753 150.07364259 29.13299838 143.84566765 29.13629532 137.61768532 C29.13917659 131.76627756 29.1371936 125.91489151 29.13140106 120.0634861 C29.13007503 117.9119775 29.13046494 115.76046708 29.13266373 113.6089592 C29.13538122 110.68071285 29.13198671 107.75253686 29.12698364 104.82429504 C29.13032973 103.53618328 29.13032973 103.53618328 29.13374341 102.22204906 C29.12265228 98.8937369 29.05996285 96.17988854 28 93 C26.7625 92.773125 25.525 92.54625 24.25 92.3125 C23.55390625 92.18488281 22.8578125 92.05726563 22.140625 91.92578125 C19.94069956 91.86611224 19.94069956 91.86611224 17.89696503 92.9520092 C14.93264614 96.15233062 15.4574756 99.70204893 15.50793457 103.84207153 C15.50325558 104.757084 15.49857659 105.67209646 15.49375582 106.61483657 C15.48278534 109.69419074 15.50034517 112.77273471 15.51757812 115.85205078 C15.51539324 118.05461367 15.511398 120.2571754 15.50572205 122.45973206 C15.49714118 127.21029541 15.50096369 131.96063313 15.5141449 136.71118546 C15.53443887 144.2246773 15.52452177 151.7379405 15.5098877 159.25143433 C15.4921937 169.78840529 15.48558817 180.32532404 15.49072266 190.86230469 C15.49120361 191.86555123 15.49120361 191.86555123 15.49169427 192.88906537 C15.49440551 198.31254171 15.49783475 203.73601755 15.50129986 209.15949345 C15.5042938 213.89148507 15.50700267 218.62347673 15.50927734 223.35546875 C15.50960285 224.02166596 15.50992837 224.68786316 15.51026374 225.37424816 C15.51521235 236.49712521 15.50433713 247.61994238 15.48270559 258.74279964 C15.46933265 266.20931573 15.47529257 273.67549043 15.49607086 281.14198613 C15.50506472 285.79356692 15.49757506 290.44501651 15.48565865 295.09658623 C15.48352996 297.25041461 15.4882367 299.4042625 15.5003643 301.55805779 C15.51601592 304.5043994 15.50697913 307.44970356 15.49206543 310.39602661 C15.50255433 311.24322805 15.51304322 312.09042948 15.52384996 312.96330369 C15.4328 321.07225253 12.68838753 328.10912762 7 334 C-2.45469842 341.10564206 -12.29816842 340.82675137 -23.52832031 340.68115234 C-25.37243087 340.67945691 -27.21654547 340.68041572 -29.06065369 340.68380737 C-34.03328608 340.68551895 -39.00503848 340.65040566 -43.97746754 340.60836363 C-49.18640923 340.57068891 -54.39537423 340.56731811 -59.60443115 340.56021118 C-69.4534052 340.54161137 -79.30197652 340.49244042 -89.15077376 340.43211424 C-100.36964491 340.36489734 -111.58853594 340.33202199 -122.80755854 340.30194163 C-145.87192839 340.2393369 -168.93594156 340.13389686 -192 340 C-188.70707827 336.57851859 -184.92602138 334.38158628 -180.88671875 331.9140625 C-177.90353865 330.10586755 -177.90353865 330.10586755 -175.6534729 327.4176178 C-170.82363029 323.39987939 -164.61386339 324.33405466 -158.65771484 324.40405273 C-157.2970024 324.40214719 -155.93629154 324.39798822 -154.57559204 324.39175415 C-151.65183837 324.38297933 -148.7286792 324.38968749 -145.8049736 324.40841484 C-141.17196269 324.4375963 -136.53945963 324.42968819 -131.90640259 324.41651917 C-122.89812162 324.39587043 -113.89008757 324.41143064 -104.88182068 324.43199158 C-93.43771955 324.45713855 -81.99375948 324.46986117 -70.54965365 324.44203526 C-65.95484216 324.43214179 -61.3606476 324.44206809 -56.76590419 324.46794307 C-53.89178712 324.48021617 -51.01785738 324.47586283 -48.14373398 324.46736526 C-46.19943908 324.46658515 -44.25516695 324.48566253 -42.31097412 324.50559998 C-30.94009673 324.44147722 -20.37484309 322.10351988 -12 314 C-2.97149597 304.5080204 -0.39138633 294.35808422 -0.48101807 281.51582336 C-0.47351681 280.3058603 -0.46601556 279.09589723 -0.458287 277.84926862 C-0.4416053 274.52175567 -0.44253867 271.1951237 -0.45119452 267.86763918 C-0.45616655 264.26788737 -0.43802093 260.66823989 -0.42277527 257.06852722 C-0.39952573 250.8421159 -0.39071194 244.61582085 -0.39188385 238.38936806 C-0.39355705 229.38714636 -0.37317813 220.38507911 -0.34752855 211.38289871 C-0.30650125 196.77521149 -0.2831483 182.16755215 -0.27099609 167.55981445 C-0.25915786 153.3752169 -0.23894233 139.19067179 -0.20751953 125.00610352 C-0.20558343 124.13081677 -0.20364733 123.25553003 -0.20165256 122.35371945 C-0.19188759 117.96237917 -0.18195855 113.57103927 -0.17194796 109.17969954 C-0.08919722 72.78649076 -0.03516648 36.39328433 0 0 Z " fill="#B0E3F8" transform="translate(451,76)"/>
<path d="M0 0 C2.49823192 2.20677153 4.9207573 4.47215634 7.328125 6.77734375 C8.01519531 7.40125 8.70226562 8.02515625 9.41015625 8.66796875 C27.45971458 25.61390517 37.72966559 51.02961541 38.53125 75.5546875 C38.95118804 102.72730323 31.94177219 126.60465032 14.328125 147.77734375 C13.67199219 148.58042969 13.01585937 149.38351562 12.33984375 150.2109375 C-4.20427204 169.59810061 -29.27538307 182.41909807 -54.671875 184.77734375 C-83.09754731 186.63283835 -109.53913542 178.86295381 -131.671875 160.77734375 C-132.83976562 159.85695313 -132.83976562 159.85695313 -134.03125 158.91796875 C-154.9198723 141.58485663 -166.11240054 115.34884895 -168.671875 88.77734375 C-170.59652764 61.26281809 -162.62814585 34.93896922 -144.671875 13.77734375 C-108.25668922 -27.73336103 -43.41192957 -36.11314024 0 0 Z M-125.671875 19.77734375 C-126.28417969 20.31617188 -126.89648438 20.855 -127.52734375 21.41015625 C-136.17124893 29.2826374 -142.62241333 40.90930324 -146.671875 51.77734375 C-147.06375 52.80085938 -147.455625 53.824375 -147.859375 54.87890625 C-155.18694202 77.42135201 -151.01069692 102.56275851 -140.546875 123.33984375 C-128.73834633 144.30444541 -109.78312562 157.44980579 -87.3046875 164.8671875 C-64.08721924 170.68403708 -39.80804869 166.1930853 -19.28515625 154.45703125 C-0.22075551 142.20338055 12.51952697 124.47210747 18.328125 102.77734375 C18.51141357 102.12668945 18.69470215 101.47603516 18.88354492 100.80566406 C24.48716995 78.95227796 20.47473464 56.32061394 9.37890625 37.09375 C6.66158152 32.69944771 3.68699124 28.69476303 0.328125 24.77734375 C-0.43242187 23.81828125 -1.19296875 22.85921875 -1.9765625 21.87109375 C-14.1284759 7.32392804 -31.81777752 0.32065773 -49.671875 -4.22265625 C-50.46722656 -4.42632812 -51.26257813 -4.63 -52.08203125 -4.83984375 C-79.66710482 -8.91727544 -105.85830876 0.56205571 -125.671875 19.77734375 Z " fill="#FBDC7B" transform="translate(267.671875,230.22265625)"/>
<path d="M0 0 C3.77067733 1.415841 5.98038876 2.61419607 8.625 5.6875 C9.19476563 6.33074219 9.76453125 6.97398438 10.3515625 7.63671875 C15.36232731 14.82039816 15.39314339 20.98630575 15.30078125 29.5390625 C15.30841879 32.0000027 15.31690789 34.46094038 15.32617188 36.921875 C15.32395601 40.78437815 15.31234813 44.64637943 15.28491211 48.50878906 C15.26424116 52.24856719 15.28018998 55.98681618 15.30078125 59.7265625 C15.28227615 60.88185455 15.26377106 62.03714661 15.2447052 63.22744751 C15.09730284 68.84188118 15.09730284 68.84188118 17.35440063 73.74943542 C19.16779805 75.23580269 19.16779805 75.23580269 22 77 C22.796875 80.41015625 22.796875 80.41015625 22.75 84.0625 C22.77320313 85.87427734 22.77320313 85.87427734 22.796875 87.72265625 C22.40242188 89.34494141 22.40242188 89.34494141 22 91 C20.5130107 91.81412086 20.5130107 91.81412086 18.99598122 92.64468861 C15.93570446 94.58942315 15.93570446 94.58942315 15.44075084 96.82635152 C15.23670207 99.22247397 15.2216853 101.55771825 15.26742554 103.96232605 C15.2610377 104.87819294 15.25464986 105.79405983 15.24806845 106.73768026 C15.23381274 109.81430861 15.26235916 112.88906527 15.29052734 115.96557617 C15.28890606 118.1682876 15.28459384 120.37099845 15.27778625 122.57369995 C15.26875467 127.32163553 15.27853253 132.06903381 15.30268478 136.81691551 C15.34046794 144.32632923 15.33493565 151.83532638 15.32315063 159.34480286 C15.31097815 169.87584346 15.31686593 180.40673192 15.33984375 190.93774414 C15.3420212 191.94014243 15.3420212 191.94014243 15.34424265 192.96279118 C15.35015524 195.6700775 15.3561083 198.37736373 15.36211874 201.08464984 C15.37840242 208.52656139 15.38997976 215.96847722 15.39941406 223.41040039 C15.4006905 224.40930211 15.4006905 224.40930211 15.40199272 225.42838367 C15.41562719 236.54675819 15.41322593 247.66509383 15.40136492 258.78346997 C15.3948357 266.24584434 15.40911845 273.70780348 15.43981528 281.17011392 C15.45519327 285.81839766 15.45423253 290.46657772 15.44907188 295.11487961 C15.45013184 297.26710683 15.45806102 299.41934356 15.4734478 301.57151604 C15.49359987 304.51558708 15.48902316 307.45865663 15.47860718 310.40275574 C15.49046031 311.24927505 15.50231345 312.09579437 15.51452577 312.96796578 C15.43592013 321.07687532 12.68744702 328.11010161 7 334 C-2.45469842 341.10564206 -12.29816842 340.82675137 -23.52832031 340.68115234 C-25.37243087 340.67945691 -27.21654547 340.68041572 -29.06065369 340.68380737 C-34.03328608 340.68551895 -39.00503848 340.65040566 -43.97746754 340.60836363 C-49.18640923 340.57068891 -54.39537423 340.56731811 -59.60443115 340.56021118 C-69.4534052 340.54161137 -79.30197652 340.49244042 -89.15077376 340.43211424 C-100.36964491 340.36489734 -111.58853594 340.33202199 -122.80755854 340.30194163 C-145.87192839 340.2393369 -168.93594156 340.13389686 -192 340 C-188.70707827 336.57851859 -184.92602138 334.38158628 -180.88671875 331.9140625 C-177.90353865 330.10586755 -177.90353865 330.10586755 -175.6534729 327.4176178 C-170.82363029 323.39987939 -164.61386339 324.33405466 -158.65771484 324.40405273 C-157.2970024 324.40214719 -155.93629154 324.39798822 -154.57559204 324.39175415 C-151.65183837 324.38297933 -148.7286792 324.38968749 -145.8049736 324.40841484 C-141.17196269 324.4375963 -136.53945963 324.42968819 -131.90640259 324.41651917 C-122.89812162 324.39587043 -113.89008757 324.41143064 -104.88182068 324.43199158 C-93.43771955 324.45713855 -81.99375948 324.46986117 -70.54965365 324.44203526 C-65.95484216 324.43214179 -61.3606476 324.44206809 -56.76590419 324.46794307 C-53.89178712 324.48021617 -51.01785738 324.47586283 -48.14373398 324.46736526 C-46.19943908 324.46658515 -44.25516695 324.48566253 -42.31097412 324.50559998 C-30.94009673 324.44147722 -20.37484309 322.10351988 -12 314 C-2.97149597 304.5080204 -0.39138633 294.35808422 -0.48101807 281.51582336 C-0.47351681 280.3058603 -0.46601556 279.09589723 -0.458287 277.84926862 C-0.4416053 274.52175567 -0.44253867 271.1951237 -0.45119452 267.86763918 C-0.45616655 264.26788737 -0.43802093 260.66823989 -0.42277527 257.06852722 C-0.39952573 250.8421159 -0.39071194 244.61582085 -0.39188385 238.38936806 C-0.39355705 229.38714636 -0.37317813 220.38507911 -0.34752855 211.38289871 C-0.30650125 196.77521149 -0.2831483 182.16755215 -0.27099609 167.55981445 C-0.25915786 153.3752169 -0.23894233 139.19067179 -0.20751953 125.00610352 C-0.20558343 124.13081677 -0.20364733 123.25553003 -0.20165256 122.35371945 C-0.19188759 117.96237917 -0.18195855 113.57103927 -0.17194796 109.17969954 C-0.08919722 72.78649076 -0.03516648 36.39328433 0 0 Z " fill="#CBE6F2" transform="translate(451,76)"/>
<path d="M0 0 C0.63776367 0.20898926 1.27552734 0.41797852 1.93261719 0.63330078 C11.76972021 3.94792282 19.79192707 8.64824874 28 15 C28.76054687 15.5878125 29.52109375 16.175625 30.3046875 16.78125 C44.76901574 28.71291376 55.89648063 48.49970203 59 67 C61.41774595 97.10740431 54.71172445 120.10414531 35.26171875 143.05078125 C21.78523888 157.59735381 0.41027857 167.14710235 -19.20776367 168.1081543 C-45.60186354 168.80281049 -67.21148851 162.07839321 -87 144 C-103.02314983 128.20252834 -111.9176161 107.23868959 -112.29296875 84.90185547 C-112.44079478 59.15425722 -104.33818793 38.45303115 -86.3125 19.8125 C-80.50727854 14.02668472 -74.21116263 9.92089831 -67 6 C-66.15824219 5.51917969 -65.31648438 5.03835937 -64.44921875 4.54296875 C-44.91912345 -6.03716471 -20.81755425 -6.97660716 0 0 Z M-74 29 C-74.66257812 29.56976563 -75.32515625 30.13953125 -76.0078125 30.7265625 C-86.81492001 40.68605373 -96.18660461 56.54765606 -97.16113281 71.46679688 C-97.69737926 88.51446214 -97.69737926 88.51446214 -94 105 C-93.48953125 106.47919922 -93.48953125 106.47919922 -92.96875 107.98828125 C-90.11155628 115.58494159 -86.01272163 121.66159993 -81 128 C-79.88625 129.546875 -79.88625 129.546875 -78.75 131.125 C-65.40118279 145.08058163 -47.99455519 152.8700954 -28.80419922 153.34912109 C-20.15265555 153.4255558 -12.12794336 153.24856805 -4 150 C-3.02160156 149.64808594 -2.04320312 149.29617188 -1.03515625 148.93359375 C6.0793904 146.21517302 12.02629938 142.70207128 18 138 C18.76054687 137.41605469 19.52109375 136.83210938 20.3046875 136.23046875 C33.76249534 125.17085158 42.57297028 108.12105822 44.31982422 90.83520508 C44.47134937 87.61268738 44.51900459 84.41346951 44.5 81.1875 C44.49427979 80.05038574 44.48855957 78.91327148 44.48266602 77.74169922 C44.08760725 59.0794954 36.05263166 44.11934017 23 31 C22.33613281 30.30132812 21.67226562 29.60265625 20.98828125 28.8828125 C10.55186108 18.66506019 -5.45188381 11.81758008 -20 11 C-21.61841797 10.90332031 -21.61841797 10.90332031 -23.26953125 10.8046875 C-42.18479492 10.21049074 -59.76686218 16.31755424 -74 29 Z " fill="#030303" transform="translate(229,229)"/>
<path d="M0 0 C5.57784659 3.35418245 9.30312606 8.25978674 11.33203125 14.40234375 C13.36862765 25.30314252 8.46318802 33.28957653 3.33203125 42.40234375 C2.19230648 44.47432405 1.05441531 46.54731359 -0.08203125 48.62109375 C-2.9478325 53.83157291 -5.84168195 59.02574144 -8.75445557 64.21005249 C-10.95354888 68.124455 -13.13817053 72.04661462 -15.31640625 75.97265625 C-16.45404151 78.01193389 -17.5920444 80.05100651 -18.73046875 82.08984375 C-19.24182373 83.01482666 -19.75317871 83.93980957 -20.2800293 84.89282227 C-30.30817404 102.75560959 -30.30817404 102.75560959 -40.60546875 105.65234375 C-47.7730097 107.12920947 -52.74547401 106.55494648 -59.1953125 103.0625 C-63.50551647 100.16860318 -66.50017093 96.47350597 -69.66796875 92.40234375 C-70.44914062 91.4071875 -71.2303125 90.41203125 -72.03515625 89.38671875 C-74.16755289 86.64763789 -76.26857956 83.88575643 -78.36376953 81.11816406 C-80.12159954 78.80554158 -81.89997191 76.50909268 -83.67822266 74.2121582 C-85.6846103 71.61634247 -87.67634098 69.00950124 -89.66796875 66.40234375 C-90.21839844 65.68949219 -90.76882812 64.97664063 -91.3359375 64.2421875 C-96.50534307 57.34459356 -97.60817646 50.86421314 -96.66796875 42.40234375 C-94.84073688 35.76417227 -90.23442861 31.23770715 -84.66796875 27.40234375 C-78.86781937 24.55012508 -72.99091865 24.57888981 -66.66796875 25.40234375 C-59.35753588 28.11878875 -54.73542522 32.88779965 -50.66796875 39.40234375 C-47.69355557 35.88358822 -45.44258615 32.36988211 -43.3125 28.2890625 C-42.68372936 27.11090796 -42.05414543 25.93318717 -41.42382812 24.75585938 C-40.45267158 22.93039732 -39.48715952 21.10275664 -38.53588867 19.2668457 C-30.21059785 3.25833401 -18.64752642 -8.25189752 0 0 Z " fill="#030303" transform="translate(242.66796875,265.59765625)"/>
<path d="M0 0 C3.83614585 1.43466578 6.0159492 2.67267737 8.6875 5.8125 C9.26886719 6.47894531 9.85023438 7.14539062 10.44921875 7.83203125 C13.3378789 11.87033448 14.24968255 15.4589335 14.26006222 20.38463211 C14.26712781 21.45843951 14.2741934 22.5322469 14.2814731 23.63859391 C14.27905802 24.81241175 14.27664293 25.9862296 14.27415466 27.19561768 C14.27939134 28.44719028 14.28462802 29.69876289 14.29002339 30.98826194 C14.30419684 34.45989439 14.30586681 37.93143729 14.30542648 41.40309453 C14.30707527 45.14829054 14.32014294 48.89344971 14.33161926 52.6386261 C14.35446357 60.82668918 14.36238924 69.01472633 14.36744571 77.20281696 C14.37070336 82.3164871 14.37722625 87.43014973 14.3844471 92.54381561 C14.4040122 106.70515322 14.42041696 120.86648385 14.42332363 135.02783585 C14.4235112 135.93395284 14.42369877 136.84006983 14.42389202 137.77364491 C14.42425827 139.61052465 14.42462197 141.4474044 14.42498314 143.28428414 C14.42516595 144.19610026 14.42534876 145.10791637 14.42553711 146.04736328 C14.42580793 147.41675893 14.42580793 147.41675893 14.42608423 148.81381914 C14.42962578 163.60613233 14.45664733 178.39829993 14.494035 193.19056264 C14.53212281 208.38152889 14.55148114 223.57242292 14.55178314 238.76343799 C14.5523676 247.29106729 14.56085223 255.81852291 14.58978081 264.34610748 C14.61430104 271.60753376 14.62157332 278.86872301 14.60653328 286.13017949 C14.59936693 289.83369001 14.60020925 293.53673254 14.62294388 297.24019051 C14.6473793 301.25928638 14.63289072 305.27731882 14.61473083 309.29644775 C14.6279308 310.46134271 14.64113077 311.62623766 14.65473074 312.82643247 C14.57316643 320.73044488 12.99462802 326.60718264 7.59273332 332.54754472 C0.31860826 339.12644811 -6.75383242 339.43004655 -16.08569336 339.34057617 C-17.28640472 339.34101425 -18.48711609 339.34145233 -19.72421265 339.34190369 C-22.99864292 339.34017816 -26.27268299 339.32518654 -29.54703593 339.30418181 C-32.9756402 339.28536205 -36.40425305 339.28366042 -39.832901 339.28010559 C-46.31740474 339.27080061 -52.80175581 339.24620799 -59.28619248 339.21605712 C-66.67192425 339.18246473 -74.05766351 339.16601498 -81.44345272 339.15097082 C-96.62905338 339.1196569 -111.81451138 339.06692676 -127 339 C-125.87540329 337.22891052 -124.75030797 335.45813764 -123.625 333.6875 C-122.68527344 332.20830078 -122.68527344 332.20830078 -121.7265625 330.69921875 C-120.50348387 328.78712071 -119.2590644 326.8885966 -118 325 C-115.31639615 324.7101341 -112.86168275 324.61445688 -110.17651367 324.64697266 C-109.36804993 324.64481247 -108.55958618 324.64265228 -107.72662354 324.64042664 C-105.96582686 324.63733297 -104.20500875 324.6409652 -102.44423485 324.65044022 C-99.64685651 324.66416609 -96.85018896 324.6577452 -94.05281067 324.64559937 C-86.09741684 324.61464068 -78.14218403 324.61936312 -70.18676758 324.63964844 C-65.3213106 324.65064491 -60.45638167 324.63719828 -55.5909977 324.60975266 C-53.74567296 324.60435118 -51.90029413 324.60827492 -50.05501366 324.62215042 C-35.81624509 324.7278436 -22.81554771 323.43438303 -12 313 C-2.7587145 303.45447465 -0.38972606 292.42582773 -0.48101807 279.47149658 C-0.47351681 278.26884619 -0.46601556 277.06619581 -0.458287 275.82710147 C-0.44162487 272.52464803 -0.44253081 269.2230839 -0.45119452 265.92065954 C-0.456172 262.34614692 -0.43801426 258.77173886 -0.42277527 255.19726562 C-0.39953894 249.01616192 -0.39071135 242.83517529 -0.39188385 236.65402985 C-0.39355789 227.71734192 -0.37316967 218.78080939 -0.34752855 209.84416303 C-0.30651315 195.34240532 -0.28315134 180.8406757 -0.27099609 166.33886719 C-0.25915573 152.25811059 -0.23893612 138.1774068 -0.20751953 124.09667969 C-0.20558343 123.22762966 -0.20364733 122.35857963 -0.20165256 121.46319476 C-0.19188751 117.10309325 -0.18195848 112.74299213 -0.17194796 108.38289118 C-0.08921302 72.25528535 -0.03517233 36.1276819 0 0 Z " fill="#E3F5FE" transform="translate(422,47)"/>
<path d="M0 0 C2.29711914 1.20385742 2.29711914 1.20385742 3.97265625 2.91796875 C4.62250488 3.55782715 5.27235352 4.19768555 5.94189453 4.85693359 C6.62106934 5.56414551 7.30024414 6.27135742 8 7 C9.56064009 8.51750098 11.12185905 10.03440681 12.68359375 11.55078125 C14.27083977 13.13541022 15.85545382 14.72267964 17.4375 16.3125 C18.25154297 17.12267578 19.06558594 17.93285156 19.90429688 18.76757812 C21.06348633 19.92870117 21.06348633 19.92870117 22.24609375 21.11328125 C22.94404053 21.81235596 23.6419873 22.51143066 24.36108398 23.23168945 C27.09177988 26.17797731 27.51686193 28.7634429 27.48046875 32.78125 C26.53374824 37.15309757 23.0791484 39.93993723 20 43 C16.30268962 46.7544685 16.30268962 46.7544685 14.625 51.625 C14.89858072 53.95904339 14.89858072 53.95904339 15.765625 55.84765625 C16 58 16 58 14.4453125 60.39453125 C8.16092105 66.94341729 8.16092105 66.94341729 4.67578125 67.11328125 C3.21490521 66.79459101 1.75735329 66.46013954 0.30419922 66.10791016 C-2.02199763 65.78484115 -2.02199763 65.78484115 -3.80541992 67.09008789 C-4.39943604 67.64946045 -4.99345215 68.20883301 -5.60546875 68.78515625 C-6.29697021 69.4306543 -6.98847168 70.07615234 -7.70092773 70.74121094 C-12.57519646 75.53007515 -17.3905066 80.37362568 -22.16552734 85.26147461 C-23.53819726 86.66435754 -24.91745296 88.06078699 -26.296875 89.45703125 C-27.10479492 90.28178955 -27.91271484 91.10654785 -28.74511719 91.95629883 C-31.66271699 94.60065006 -33.9143127 95.7779276 -37.75 96.5625 C-46.02069721 95.13103318 -53.22653527 84.9249248 -58.9375 79.1875 C-59.79923828 78.32962891 -60.66097656 77.47175781 -61.54882812 76.58789062 C-62.77569336 75.3590918 -62.77569336 75.3590918 -64.02734375 74.10546875 C-65.13710571 72.99401489 -65.13710571 72.99401489 -66.26928711 71.86010742 C-69.11839556 68.79798903 -69.43071105 66.28748387 -69.36234856 62.10774231 C-68.72216616 58.38387063 -66.23525075 56.11470174 -63.63500977 53.58398438 C-63.06425217 52.99760193 -62.49349457 52.41121948 -61.90544128 51.80706787 C-60.02049479 49.88194226 -58.10780407 47.98753157 -56.19140625 46.09375 C-54.86665155 44.76106215 -53.54301326 43.42726368 -52.22044373 42.09240723 C-49.44648471 39.3021587 -46.65834865 36.52711359 -43.85961914 33.76171875 C-40.27938487 30.2214513 -36.73883732 26.64430342 -33.20826817 23.05458832 C-30.48329859 20.29314789 -27.73737675 17.55332597 -24.9848156 14.81941223 C-23.67078835 13.50886563 -22.36352001 12.19150486 -21.06332588 10.86723328 C-19.23963509 9.01585951 -17.38939894 7.19580199 -15.52954102 5.38085938 C-14.73651077 4.55814545 -14.73651077 4.55814545 -13.92745972 3.71881104 C-9.63974822 -0.37049618 -5.81616429 -0.90858146 0 0 Z " fill="#A67C72" transform="translate(86,401)"/>
<path d="M0 0 C1.3623869 1.12628238 2.67889451 2.30786505 3.98046875 3.50390625 C0.30647002 4.6528805 -1.93727341 4.02245872 -5.62841797 3.01074219 C-25.13773438 -1.12457953 -45.161143 3.58475569 -62.01953125 13.50390625 C-65.18631765 15.66842593 -68.10972014 18.00894773 -71.01953125 20.50390625 C-71.62023437 20.96152344 -72.2209375 21.41914063 -72.83984375 21.890625 C-78.76972098 26.53082041 -83.81755783 32.90350081 -87.0703125 39.69921875 C-88.01953125 41.50390625 -88.01953125 41.50390625 -90.89453125 43.75390625 C-94.58239435 46.7367367 -96.67420515 49.94517266 -98.01953125 54.50390625 C-98.56632686 59.99496637 -98.2117525 65.12437135 -97.01953125 70.50390625 C-97.67953125 70.50390625 -98.33953125 70.50390625 -99.01953125 70.50390625 C-98.60937378 80.31530477 -98.14597406 89.8850751 -96.01953125 99.50390625 C-95.68395747 101.17012326 -95.35002674 102.83667453 -95.01953125 104.50390625 C-105.52594048 94.92453313 -112.38107082 80.22348126 -113.15600586 65.9987793 C-113.98521952 42.5918872 -113.98521952 42.5918872 -109.01953125 31.50390625 C-108.58382812 30.48425781 -108.148125 29.46460938 -107.69921875 28.4140625 C-104.40486913 21.27630499 -100.23279256 15.36261896 -95.01953125 9.50390625 C-94.41496094 8.80523437 -93.81039062 8.1065625 -93.1875 7.38671875 C-69.56856928 -18.17145049 -27.5798956 -20.43152807 0 0 Z " fill="#AFE1F6" transform="translate(245.01953125,253.49609375)"/>
<path d="M0 0 C1.03568115 0.00837891 2.0713623 0.01675781 3.13842773 0.02539062 C12.37347176 0.29818319 18.99898578 1.91151843 25.90234375 8.41796875 C32.59147202 16.35006462 34.73785187 25.96751646 34.37109375 36.13671875 C33.35041736 45.73107677 30.12909256 52.31988769 23.70703125 59.46875 C16.38037228 65.30470346 9.36678178 66.26649182 0.1875 66.125 C-1.34680664 66.14820313 -1.34680664 66.14820313 -2.91210938 66.171875 C-4.3884082 66.16414063 -4.3884082 66.16414063 -5.89453125 66.15625 C-6.77987549 66.15173828 -7.66521973 66.14722656 -8.57739258 66.14257812 C-11.83738094 65.44609769 -12.91407481 64.19683277 -15 61.625 C-15.50793457 59.00695801 -15.50793457 59.00695801 -15.51757812 56.00195312 C-15.53018677 54.87398315 -15.54279541 53.74601318 -15.55578613 52.5838623 C-15.54768921 51.37025024 -15.53959229 50.15663818 -15.53125 48.90625 C-15.5350769 47.65622192 -15.53890381 46.40619385 -15.54284668 45.11828613 C-15.54556914 42.47494095 -15.54019953 39.83307514 -15.52148438 37.18994141 C-15.49869354 33.80682509 -15.51181983 30.42497803 -15.53577423 27.04190826 C-15.55372684 23.80914367 -15.54114701 20.57653118 -15.53125 17.34375 C-15.53934692 16.13013794 -15.54744385 14.91652588 -15.55578613 13.6661377 C-15.54317749 12.53816772 -15.53056885 11.41019775 -15.51757812 10.24804688 C-15.51439575 9.25639526 -15.51121338 8.26474365 -15.50793457 7.24304199 C-13.92445102 -0.9186912 -6.66467316 -0.07189621 0 0 Z " fill="#040404" transform="translate(271,114.375)"/>
<path d="M0 0 C1.83984375 0.56640625 1.83984375 0.56640625 3.83984375 2.19140625 C5.61969389 6.41855034 5.35479493 10.29047166 3.65332031 14.50634766 C3.1012793 15.46718262 2.54923828 16.42801758 1.98046875 17.41796875 C1.36518311 18.50609863 0.74989746 19.59422852 0.1159668 20.71533203 C-0.55908274 21.8742127 -1.23446471 23.03289979 -1.91015625 24.19140625 C-2.59923465 25.39751342 -3.28696437 26.60439206 -3.97338867 27.81201172 C-5.36193493 30.24927115 -6.7587609 32.6814561 -8.16357422 35.109375 C-9.94942063 38.20152286 -11.71795128 41.302466 -13.4765625 44.41015625 C-15.88703733 48.66563824 -18.31810418 52.90864034 -20.76367188 57.14404297 C-21.71086946 58.78706646 -22.65477599 60.4319908 -23.59570312 62.07861328 C-24.96466583 64.47429801 -26.34242467 66.86470065 -27.72265625 69.25390625 C-28.12846924 69.96756348 -28.53428223 70.6812207 -28.95239258 71.41650391 C-30.80750789 74.60334529 -32.04350524 76.48863891 -35.16015625 78.56640625 C-38.70479204 79.02875005 -40.49916864 79.00706465 -43.50390625 77.00390625 C-46.75591582 74.01970923 -49.20867715 70.75877332 -51.78515625 67.19140625 C-52.83837841 65.75803672 -53.89309878 64.325767 -54.94921875 62.89453125 C-55.48063477 62.17330078 -56.01205078 61.45207031 -56.55957031 60.70898438 C-59.45894431 56.82782113 -62.47845305 53.04155283 -65.50634766 49.26025391 C-72.9045302 39.9581481 -72.9045302 39.9581481 -73.72265625 35.50390625 C-72.93900197 31.41148945 -71.51250189 29.99150735 -68.16015625 27.56640625 C-64.7890625 27.125 -64.7890625 27.125 -61.16015625 27.56640625 C-58.53515625 29.65625 -58.53515625 29.65625 -56.16015625 32.50390625 C-55.30808594 33.4990625 -54.45601562 34.49421875 -53.578125 35.51953125 C-51.44417111 38.20851999 -49.45646175 40.95428861 -47.47265625 43.75390625 C-44.99642775 47.02627441 -44.63780831 47.47087584 -40.41015625 48.31640625 C-36.94185959 47.5160301 -36.34331374 47.17786613 -34.16015625 44.56640625 C-33.11065826 42.87400559 -32.11487792 41.14782321 -31.15625 39.40234375 C-30.58503418 38.36996582 -30.01381836 37.33758789 -29.42529297 36.27392578 C-28.52061279 34.62432861 -28.52061279 34.62432861 -27.59765625 32.94140625 C-26.33970459 30.67513535 -25.08058401 28.4095129 -23.8203125 26.14453125 C-23.20043457 25.02884766 -22.58055664 23.91316406 -21.94189453 22.76367188 C-19.5035684 18.38818283 -17.04190028 14.02804925 -14.53515625 9.69140625 C-14.14642334 9.00353027 -13.75769043 8.3156543 -13.35717773 7.60693359 C-9.71605454 1.35517867 -7.19768831 -1.27333406 0 0 Z " fill="#B0E19C" transform="translate(234.16015625,278.43359375)"/>
<path d="M0 0 C3.97978036 0.97748991 4.96860876 1.81933725 7.5625 4.875 C8.76483154 7.2205658 8.76483154 7.2205658 9.76074219 9.83959961 C10.14083435 10.82419662 10.52092651 11.80879364 10.91253662 12.82322693 C11.50497162 14.40926476 11.50497162 14.40926476 12.109375 16.02734375 C12.52544006 17.11962784 12.94150513 18.21191193 13.37017822 19.33729553 C14.24600551 21.64434851 15.11646917 23.95344384 15.98193359 26.2644043 C17.30820331 29.80104243 18.65470433 33.32947775 20.00390625 36.85742188 C20.85278125 39.10110178 21.70047755 41.34522806 22.546875 43.58984375 C22.94992859 44.64517807 23.35298218 45.70051239 23.76824951 46.78782654 C24.31947479 48.2694503 24.31947479 48.2694503 24.88183594 49.78100586 C25.37003815 51.07862099 25.37003815 51.07862099 25.86810303 52.40245056 C26.61642454 55.0670099 26.84023637 57.12231333 26.5625 59.875 C24.06365585 63.18229372 22.61879585 64.68098648 18.5 65.4375 C14.78163911 64.72547345 13.73257429 63.97510613 11.5625 60.875 C10.9025 58.235 10.2425 55.595 9.5625 52.875 C2.6325 52.875 -4.2975 52.875 -11.4375 52.875 C-12.4275 55.845 -13.4175 58.815 -14.4375 61.875 C-16.1875 64 -16.1875 64 -18.4375 64.875 C-22.177229 64.80939072 -24.4978639 64.63845433 -27.4375 62.25 C-30.05171713 56.04123431 -25.99896356 48.42971122 -23.76171875 42.55859375 C-23.21207207 41.09656273 -23.21207207 41.09656273 -22.65132141 39.60499573 C-21.87729957 37.55213465 -21.09965403 35.50063664 -20.31860352 33.45043945 C-19.1290795 30.32322485 -17.95543366 27.19037247 -16.78320312 24.05664062 C-16.02699063 22.05693255 -15.26985972 20.05757149 -14.51171875 18.05859375 C-14.1636467 17.12720078 -13.81557465 16.1958078 -13.45695496 15.2361908 C-7.50648484 -0.27296308 -7.50648484 -0.27296308 0 0 Z " fill="#040404" transform="translate(163.4375,115.125)"/>
<path d="M0 0 C3.82781022 1.20505137 4.54103228 1.59040195 6.375 5.0625 C6.64130885 8.04585898 6.74485392 10.82848647 6.7109375 13.80859375 C6.72344849 15.55013395 6.73648555 17.29167043 6.75 19.03320312 C6.75393146 21.76974612 6.74996836 24.50592339 6.73535156 27.24243164 C6.72677323 29.89003834 6.74847364 32.53612116 6.7734375 35.18359375 C6.76009369 35.9983165 6.74674988 36.81303925 6.73300171 37.65245056 C6.78899438 41.9672548 6.99708668 43.58406428 9.76782227 47.09179688 C12.15141931 49.20394835 12.15141931 49.20394835 14.69140625 49.47265625 C15.43261719 49.35792969 16.17382812 49.24320313 16.9375 49.125 C17.68128906 49.03347656 18.42507812 48.94195312 19.19140625 48.84765625 C22.23606727 47.75288547 23.41149457 46.669786 25.375 44.0625 C25.94989136 41.06375159 25.88469954 38.10763024 25.84375 35.0625 C25.85079956 34.18980469 25.85784912 33.31710938 25.8651123 32.41796875 C25.88715386 29.63251399 25.88413757 26.84801661 25.875 24.0625 C25.86297021 20.3953129 25.87662778 16.72956096 25.90625 13.0625 C25.89493042 12.22074219 25.88361084 11.37898438 25.87194824 10.51171875 C25.92233516 4.68233947 25.92233516 4.68233947 28.22070312 1.53515625 C31.21370873 -0.51083308 32.82065992 -0.59033797 36.375 0.0625 C39.06840631 2.06084172 41.04198962 3.66629474 41.84429932 7.03012085 C42.03711217 9.42299388 42.06799847 11.76744954 42.0390625 14.16796875 C42.04384613 15.04721512 42.04862976 15.92646149 42.05355835 16.83235168 C42.05695433 18.6907429 42.04777295 20.5491941 42.02685547 22.4074707 C42.00024366 25.22420958 42.02652795 28.03690548 42.05859375 30.85351562 C42.07979891 41.94455297 41.64479615 50.55316766 33.625 58.9375 C26.40635329 63.65738439 20.12126691 66.36370842 11.375 65.0625 C4.33031569 63.28023705 -1.37084858 60.05442149 -5.625 54.0625 C-8.56943483 48.3654487 -9.09227156 43.73031934 -9.09375 37.3671875 C-9.10136353 36.45671661 -9.10897705 35.54624573 -9.11682129 34.60818481 C-9.12757652 32.69373302 -9.13049412 30.77922277 -9.12597656 28.86474609 C-9.12500043 25.9387895 -9.16675185 23.01542496 -9.2109375 20.08984375 C-9.21614235 18.22396378 -9.21883273 16.35807473 -9.21875 14.4921875 C-9.23514526 13.62125458 -9.25154053 12.75032166 -9.26843262 11.85299683 C-9.21840786 7.45606983 -9.02795139 5.60059168 -6.31445312 1.97705078 C-3.625 0.0625 -3.625 0.0625 0 0 Z " fill="#040404" transform="translate(204.625,114.9375)"/>
<path d="M0 0 C0.09944869 5.81660061 0.1717413 11.63269792 0.21972656 17.44995117 C0.23974646 19.4256249 0.26697092 21.40124009 0.30175781 23.37670898 C0.35070207 26.2291515 0.37306525 29.08080549 0.390625 31.93359375 C0.41127014 32.80584091 0.43191528 33.67808807 0.45318604 34.57676697 C0.45575564 41.72269822 -1.32857571 47.68878081 -5.859375 53.3046875 C-6.48328125 53.82289062 -7.1071875 54.34109375 -7.75 54.875 C-8.36359375 55.40867188 -8.9771875 55.94234375 -9.609375 56.4921875 C-16.29036966 60.70601746 -22.26764678 61.42887213 -29.96875 61.29296875 C-30.88966431 61.28872391 -31.81057861 61.28447906 -32.75939941 61.28010559 C-35.67324245 61.26344065 -38.58636939 61.22581188 -41.5 61.1875 C-43.48696911 61.17243739 -45.47394917 61.15875175 -47.4609375 61.14648438 C-52.30756357 61.11357716 -57.15366078 61.06188031 -62 61 C-56.32490113 54.07889004 -49.99130374 47.8273269 -43.671875 41.50390625 C-42.47447585 40.30328986 -41.27715039 39.10259998 -40.07989502 37.90184021 C-37.58367762 35.39966531 -35.08543283 32.89953502 -32.5859375 30.40063477 C-29.37727828 27.19207788 -26.17559486 23.97665407 -22.97556686 20.75949192 C-20.51179704 18.2846404 -18.0435331 15.81430984 -15.57395172 13.34525871 C-14.3905512 12.16067568 -13.20877753 10.97446514 -12.02864838 9.786623 C-10.38673447 8.13497115 -8.7386787 6.48970498 -7.08886719 4.84594727 C-6.60054413 4.3520047 -6.11222107 3.85806213 -5.60910034 3.34915161 C-2.22832682 0 -2.22832682 0 0 0 Z " fill="#DDEEF7" transform="translate(183,27)"/>
<path d="M0 0 C-3.74623573 1.24874524 -6.34068642 0.40302527 -10.0625 -0.4375 C-37.64411111 -6.04464664 -66.12395757 1.35256771 -89.62890625 16.24609375 C-113.27525003 31.9600418 -129.62062871 56.18812863 -136.34375 83.703125 C-137.95525008 91.79899445 -138.18319018 99.57642525 -138.1875 107.8125 C-138.19974609 109.03259766 -138.21199219 110.25269531 -138.22460938 111.50976562 C-138.23488525 117.88423451 -137.93777109 123.73595031 -136.33325195 129.9206543 C-135.9604399 132.24683763 -136.28173049 133.77603642 -137 136 C-140.97122253 125.09787023 -144.31898663 114.67568712 -145 103 C-145.04914551 102.22317871 -145.09829102 101.44635742 -145.14892578 100.64599609 C-146.64432234 73.10175627 -137.73515413 47.07687762 -119.49951172 26.28955078 C-90.76160397 -5.33379703 -39.62029562 -20.54385699 0 0 Z " fill="#FACC62" transform="translate(244,216)"/>
<path d="M0 0 C2.59375 1.4609375 2.59375 1.4609375 4.5 3.375 C5.1496875 4.00148438 5.799375 4.62796875 6.46875 5.2734375 C8 7 8 7 9 9 C7.97211365 9.21590286 6.94422729 9.43180573 5.88519287 9.6542511 C1.61046022 10.8881367 -1.10397551 13.40432695 -4.16308594 16.53198242 C-4.73474991 17.09649109 -5.30641388 17.66099976 -5.895401 18.24261475 C-7.77099506 20.10137956 -9.62791221 21.97761097 -11.484375 23.85546875 C-12.78917501 25.15943948 -14.09479115 26.46259403 -15.40118408 27.76496887 C-18.13244557 30.4933762 -20.85474435 33.23033515 -23.57080078 35.97387695 C-27.04462706 39.48176733 -30.53811664 42.96925876 -34.03835678 46.45077038 C-36.73619608 49.13801634 -39.42416243 51.83496554 -42.10919952 54.53499794 C-43.39335892 55.82432355 -44.68033392 57.1108514 -45.97020721 58.39446068 C-47.77495074 60.19372476 -49.56619051 62.00545712 -51.35449219 63.82104492 C-51.88440262 64.34442947 -52.41431305 64.86781403 -52.96028137 65.40705872 C-56.50780845 69.04662576 -58.27256208 72.31107908 -60 77 C-61.12894876 76.06725891 -62.25300876 75.12859878 -63.375 74.1875 C-64.00148438 73.66542969 -64.62796875 73.14335937 -65.2734375 72.60546875 C-68.19760973 69.88638552 -68.9753328 68.20291099 -69.46031189 64.21350098 C-69.3195568 59.41556017 -66.95797913 56.81810626 -63.63500977 53.58398438 C-63.06425217 52.99760193 -62.49349457 52.41121948 -61.90544128 51.80706787 C-60.02049479 49.88194226 -58.10780407 47.98753157 -56.19140625 46.09375 C-54.86665155 44.76106215 -53.54301326 43.42726368 -52.22044373 42.09240723 C-49.44648471 39.3021587 -46.65834865 36.52711359 -43.85961914 33.76171875 C-40.27938487 30.2214513 -36.73883732 26.64430342 -33.20826817 23.05458832 C-30.48329859 20.29314789 -27.73737675 17.55332597 -24.9848156 14.81941223 C-23.67078835 13.50886563 -22.36352001 12.19150486 -21.06332588 10.86723328 C-19.23963509 9.01585951 -17.38939894 7.19580199 -15.52954102 5.38085938 C-14.73651077 4.55814545 -14.73651077 4.55814545 -13.92745972 3.71881104 C-9.65832339 -0.35278054 -5.79779984 -0.96559743 0 0 Z " fill="#97685D" transform="translate(86,401)"/>
<path d="M0 0 C2.22823597 0.00850564 4.4539022 -0.02025449 6.68188477 -0.05200195 C8.10571213 -0.05361437 9.529544 -0.05303565 10.95336914 -0.05004883 C12.24235107 -0.05190186 13.53133301 -0.05375488 14.859375 -0.05566406 C18.86498746 0.52825689 20.53353657 1.52948991 23.30102539 4.44604492 C23.92801369 8.34730545 23.88078236 10.46297875 21.86352539 13.88354492 C19.01043109 15.62323657 17.89809627 15.61699611 14.64086914 15.54370117 C13.8286792 15.52960205 13.01648926 15.51550293 12.1796875 15.50097656 C11.559729 15.48284912 10.93977051 15.46472168 10.30102539 15.44604492 C10.31673584 16.75275146 10.33244629 18.05945801 10.34863281 19.40576172 C10.40299259 24.26051656 10.43739765 29.11524456 10.46582031 33.97021484 C10.48089311 36.07019578 10.5013548 38.17014532 10.52734375 40.27001953 C10.56379293 43.29101316 10.58076698 46.31159003 10.59399414 49.33276367 C10.609478 50.26940353 10.62496185 51.2060434 10.64091492 52.17106628 C10.64217389 57.06341565 10.57398163 60.51362356 7.30102539 64.44604492 C4.46018898 65.86646313 2.44625261 65.76056764 -0.69897461 65.44604492 C-2.86987305 64.07983398 -2.86987305 64.07983398 -4.69897461 61.44604492 C-5.26100051 57.96005395 -5.16339467 54.51571596 -5.08959961 50.99291992 C-5.08393982 49.97756165 -5.07828003 48.96220337 -5.07244873 47.91607666 C-5.05007214 44.67558491 -4.99987216 41.43620202 -4.94897461 38.19604492 C-4.92891132 35.99814423 -4.91066026 33.8002262 -4.89428711 31.60229492 C-4.85020332 26.21650042 -4.78327834 20.83135189 -4.69897461 15.44604492 C-5.38967041 15.46997314 -6.08036621 15.49390137 -6.79199219 15.51855469 C-7.6958667 15.53716553 -8.59974121 15.55577637 -9.53100586 15.57495117 C-10.42795166 15.59887939 -11.32489746 15.62280762 -12.24902344 15.64746094 C-14.69897461 15.44604492 -14.69897461 15.44604492 -17.38647461 13.38354492 C-19.10450478 9.53842977 -18.88794295 7.45881308 -17.69897461 3.44604492 C-13.10176598 -1.35731031 -6.16049881 -0.03596282 0 0 Z " fill="#040404" transform="translate(358.698974609375,114.553955078125)"/>
<path d="M0 0 C4.35995859 1.32355886 5.24871713 2.10742051 7.5 6.0625 C8.07583197 10.04413387 8.01243109 13.98735246 7.9609375 18.00390625 C7.96002106 19.1637352 7.95910461 20.32356415 7.9581604 21.51853943 C7.9521256 23.96707255 7.93638342 26.41559833 7.91162109 28.86401367 C7.87510032 32.61469676 7.87060193 36.36439199 7.87109375 40.11523438 C7.86126294 42.49480022 7.8496061 44.87435936 7.8359375 47.25390625 C7.83371185 48.37688614 7.83148621 49.49986603 7.82919312 50.65687561 C7.81643341 51.70153488 7.80367371 52.74619415 7.79052734 53.82250977 C7.78290375 54.7400856 7.77528015 55.65766144 7.76742554 56.6030426 C7.47944944 59.25149927 6.94852221 60.83584649 5.5 63.0625 C2.00875983 65.38999345 0.60777749 65.56549316 -3.5 65.0625 C-6.17085164 62.99416422 -7.35752563 61.79685418 -8.00793457 58.44445801 C-8.01111694 57.4528064 -8.01429932 56.46115479 -8.01757812 55.43945312 C-8.03018677 54.31148315 -8.04279541 53.18351318 -8.05578613 52.0213623 C-8.04768921 50.80775024 -8.03959229 49.59413818 -8.03125 48.34375 C-8.0350769 47.09372192 -8.03890381 45.84369385 -8.04284668 44.55578613 C-8.04556914 41.91244095 -8.04019953 39.27057514 -8.02148438 36.62744141 C-7.99869354 33.24432509 -8.01181983 29.86247803 -8.03577423 26.47940826 C-8.05372684 23.24664367 -8.04114701 20.01403118 -8.03125 16.78125 C-8.03934692 15.56763794 -8.04744385 14.35402588 -8.05578613 13.1036377 C-8.04317749 11.97566772 -8.03056885 10.84769775 -8.01757812 9.68554688 C-8.01439575 8.69389526 -8.01121338 7.70224365 -8.00793457 6.68054199 C-7.07482322 1.87101566 -4.79470592 0.08561975 0 0 Z " fill="#080808" transform="translate(321.5,114.9375)"/>
<path d="M0 0 C10.22222222 0 10.22222222 0 14 3 C14.556875 3.433125 15.11375 3.86625 15.6875 4.3125 C19.81484191 9.61908245 19.75336227 16.59188242 19 23 C17.54367661 27.37614419 15.50567606 30.96233611 12 34 C9 35 9 35 0 35 C0 23.45 0 11.9 0 0 Z " fill="#F0F6FA" transform="translate(271,130)"/>
<path d="M0 0 C3.3088067 1.40877141 5.11467858 3.03750445 7.375 5.8125 C10.33828059 9.32619556 13.38116442 12.17554296 17 15 C16.0919838 16.13199353 15.17316174 17.25532363 14.25 18.375 C13.73953125 19.00148438 13.2290625 19.62796875 12.703125 20.2734375 C11 22 11 22 7 24 C2.05 19.05 -2.9 14.1 -8 9 C-2 2 -2 2 0 0 Z " fill="#335A78" transform="translate(110,387)"/>
<path d="M0 0 C3.05384173 1.66573185 5.45917091 3.81750376 8.0625 6.125 C7.1544838 7.25699353 6.23566174 8.38032363 5.3125 9.5 C4.80203125 10.12648438 4.2915625 10.75296875 3.765625 11.3984375 C1.98050519 13.20812318 0.38300356 14.12617455 -1.9375 15.125 C-2.97281726 14.22472412 -3.99044165 13.30406965 -5 12.375 C-5.56847656 11.86453125 -6.13695313 11.3540625 -6.72265625 10.828125 C-7.9375 9.125 -7.9375 9.125 -7.765625 7.09765625 C-6.3412939 3.70479206 -3.88317361 0.25052733 0 0 Z " fill="#3E6D8F" transform="translate(118.9375,395.875)"/>
<path d="M0 0 C3.36338044 3.36338044 4 6.28835716 4 11 C1.36 11 -1.28 11 -4 11 C-2.68 7.37 -1.36 3.74 0 0 Z " fill="#D8DEE2" transform="translate(162,142)"/>
</svg>
